<?xml version="1.0" encoding="UTF-8"?>
<svg xmlns="http://www.w3.org/2000/svg" xmlns:xlink="http://www.w3.org/1999/xlink" width="250px" height="261px" viewBox="0 0 250 260" version="1.1">
<g id="surface1">
<path style=" stroke:none;fill-rule:nonzero;fill:rgb(52.156866%,20%,45.882353%);fill-opacity:1;" d="M 124.683594 0.890625 L 125.191406 1.015625 L 127.101562 2.03125 L 129.265625 3.429688 L 132.445312 5.460938 L 135.503906 7.492188 L 138.304688 9.265625 L 142.375 11.804688 L 145.941406 13.964844 L 148.105469 15.234375 L 150.652344 16.757812 L 154.34375 18.789062 L 157.269531 20.4375 L 159.5625 21.710938 L 165.417969 25.007812 L 167.582031 26.28125 L 170.765625 28.183594 L 173.566406 29.835938 L 176.113281 31.359375 L 179.421875 33.261719 L 189.222656 38.976562 L 192.152344 40.75 L 194.824219 42.402344 L 197.242188 43.925781 L 199.917969 45.703125 L 202.207031 47.351562 L 204.628906 49.132812 L 206.28125 50.398438 L 208.320312 52.050781 L 210.101562 53.574219 L 211.5 54.71875 L 215.320312 58.273438 L 217.992188 60.9375 L 218.886719 61.953125 L 219.902344 62.96875 L 220.792969 63.984375 L 222.195312 65.632812 L 223.59375 67.414062 L 225.121094 69.316406 L 226.652344 71.347656 L 228.050781 73.25 L 230.722656 77.3125 L 232.25 79.851562 L 233.78125 82.519531 L 235.179688 85.058594 L 236.582031 87.976562 L 237.851562 90.644531 L 239.507812 94.578125 L 240.78125 97.882812 L 242.816406 103.847656 L 244.089844 108.289062 L 245.746094 115.019531 L 246.890625 120.859375 L 247.65625 125.554688 L 248.417969 131.777344 L 249.054688 139.523438 L 249.4375 147.140625 L 249.4375 156.53125 L 249.054688 164.914062 L 248.292969 175.070312 L 247.78125 180.65625 L 247.65625 182.9375 L 247.402344 184.082031 L 246.890625 184.460938 L 161.980469 184.460938 L 156.507812 184.335938 L 155.996094 183.828125 L 155.363281 181.921875 L 154.089844 177.226562 L 152.816406 172.78125 L 150.90625 165.164062 L 149.632812 160.46875 L 148.234375 155.515625 L 145.941406 146.757812 L 145.6875 145.996094 L 145.8125 145.359375 L 148.996094 144.601562 L 153.199219 143.328125 L 155.742188 142.3125 L 159.054688 140.664062 L 161.855469 139.015625 L 164.273438 137.492188 L 168.347656 134.824219 L 172.164062 132.285156 L 172.292969 131.648438 L 171.65625 128.476562 L 170.511719 123.144531 L 169.363281 118.828125 L 167.835938 114.257812 L 166.4375 111.085938 L 164.910156 108.164062 L 163.125 105.242188 L 161.855469 103.46875 L 160.453125 101.816406 L 159.5625 100.800781 L 158.164062 99.277344 L 157.144531 98.261719 L 155.742188 97.117188 L 154.34375 95.851562 L 152.5625 94.453125 L 150.90625 93.183594 L 148.613281 91.40625 L 145.6875 89.375 L 143.648438 87.976562 L 141.738281 86.710938 L 138.429688 84.550781 L 135.375 82.648438 L 131.683594 80.488281 L 129.011719 78.964844 L 126.847656 77.695312 L 125.574219 76.804688 L 124.808594 76.804688 L 122.898438 77.949219 L 119.335938 79.980469 L 117.679688 80.996094 L 115.390625 82.390625 L 112.96875 83.914062 L 109.914062 85.820312 L 106.859375 87.851562 L 105.585938 88.742188 L 103.550781 90.136719 L 101.765625 91.40625 L 99.730469 92.929688 L 97.4375 94.707031 L 95.785156 96.101562 L 94.382812 97.246094 L 92.347656 99.148438 L 91.328125 100.039062 L 90.183594 101.4375 L 89.292969 102.324219 L 87.890625 104.101562 L 86.109375 106.894531 L 84.582031 109.5625 L 83.5625 111.464844 L 82.164062 114.640625 L 80.890625 118.445312 L 80 121.75 L 78.214844 129.617188 L 77.960938 131.140625 L 77.960938 132.414062 L 78.597656 132.921875 L 80 133.808594 L 83.308594 135.96875 L 85.089844 137.109375 L 88.144531 139.015625 L 90.566406 140.410156 L 92.601562 141.554688 L 95.273438 142.820312 L 99.09375 144.09375 L 101.640625 144.851562 L 104.058594 145.488281 L 104.3125 145.617188 L 104.3125 146.503906 L 103.421875 149.679688 L 101.894531 155.773438 L 99.730469 163.640625 L 98.332031 168.976562 L 96.675781 175.195312 L 95.65625 178.875 L 94.636719 182.050781 L 94.257812 183.574219 L 93.875 184.210938 L 93.621094 184.335938 L 86.109375 184.589844 L 3.234375 184.589844 L 2.726562 184.335938 L 2.34375 181.414062 L 1.707031 174.179688 L 0.816406 160.34375 L 0.5625 154.5 L 0.5625 148.535156 L 0.816406 143.078125 L 1.453125 134.824219 L 1.960938 129.746094 L 2.855469 123.398438 L 3.871094 117.6875 L 4.890625 113.117188 L 6.417969 107.023438 L 7.945312 102.070312 L 8.964844 99.148438 L 10.363281 95.46875 L 12.148438 91.152344 L 13.929688 87.34375 L 15.457031 84.296875 L 18.765625 78.457031 L 19.914062 76.679688 L 22.585938 72.742188 L 23.859375 70.96875 L 25.386719 68.9375 L 27.042969 66.90625 L 28.1875 65.507812 L 29.714844 63.730469 L 30.734375 62.714844 L 31.625 61.699219 L 33.660156 59.539062 L 35.570312 57.636719 L 36.589844 56.75 L 37.734375 55.605469 L 38.753906 54.71875 L 40.152344 53.445312 L 41.425781 52.429688 L 43.082031 51.035156 L 44.226562 50.148438 L 45.753906 49.003906 L 50.335938 45.703125 L 52.5 44.304688 L 54.285156 43.164062 L 57.085938 41.386719 L 59.628906 39.863281 L 65.230469 36.5625 L 68.285156 34.785156 L 73.761719 31.609375 L 77.324219 29.453125 L 83.816406 25.644531 L 85.726562 24.5 L 88.910156 22.726562 L 91.835938 21.074219 L 94.636719 19.550781 L 97.820312 17.773438 L 100.496094 16.25 L 102.785156 14.851562 L 104.949219 13.585938 L 107.878906 11.804688 L 110.679688 10.03125 L 113.734375 8.125 L 119.84375 4.0625 L 122.261719 2.539062 L 123.664062 1.523438 Z M 124.683594 0.890625 "/>
<path style=" stroke:none;fill-rule:nonzero;fill:rgb(52.156866%,20%,45.882353%);fill-opacity:1;" d="M 179.675781 33.769531 L 180.566406 34.148438 L 181.078125 34.277344 L 183.113281 35.421875 L 189.222656 38.976562 L 192.152344 40.75 L 194.824219 42.402344 L 197.242188 43.925781 L 199.917969 45.703125 L 202.207031 47.351562 L 204.628906 49.132812 L 206.28125 50.398438 L 208.320312 52.050781 L 210.101562 53.574219 L 211.5 54.71875 L 215.320312 58.273438 L 217.992188 60.9375 L 218.886719 61.953125 L 219.902344 62.96875 L 220.792969 63.984375 L 222.195312 65.632812 L 223.59375 67.414062 L 225.121094 69.316406 L 226.652344 71.347656 L 228.050781 73.25 L 230.722656 77.3125 L 232.25 79.851562 L 233.78125 82.519531 L 235.179688 85.058594 L 236.582031 87.976562 L 237.851562 90.644531 L 239.507812 94.578125 L 240.78125 97.882812 L 242.816406 103.847656 L 244.089844 108.289062 L 245.746094 115.019531 L 246.890625 120.859375 L 247.65625 125.554688 L 248.417969 131.777344 L 249.054688 139.523438 L 249.4375 147.140625 L 249.4375 156.53125 L 249.054688 164.914062 L 248.292969 175.070312 L 247.78125 180.65625 L 247.65625 182.9375 L 247.402344 184.082031 L 246.890625 184.460938 L 161.980469 184.460938 L 156.507812 184.335938 L 155.996094 183.828125 L 155.363281 181.921875 L 154.089844 177.226562 L 152.816406 172.78125 L 150.90625 165.164062 L 149.632812 160.46875 L 148.234375 155.515625 L 145.941406 146.757812 L 145.6875 145.996094 L 145.8125 145.359375 L 148.996094 144.601562 L 153.199219 143.328125 L 155.742188 142.3125 L 159.054688 140.664062 L 161.855469 139.015625 L 164.273438 137.492188 L 168.347656 134.824219 L 172.164062 132.285156 L 172.292969 131.648438 L 171.65625 128.476562 L 170.511719 123.144531 L 169.363281 118.828125 L 167.835938 114.257812 L 166.4375 111.085938 L 164.910156 108.164062 L 163.125 105.242188 L 161.855469 103.46875 L 160.453125 101.816406 L 159.5625 100.800781 L 158.164062 99.277344 L 157.144531 98.261719 L 155.742188 97.117188 L 154.34375 95.851562 L 152.5625 94.453125 L 150.90625 93.183594 L 148.613281 91.40625 L 145.6875 89.375 L 143.648438 87.976562 L 141.738281 86.710938 L 141.230469 85.945312 L 141.738281 85.695312 L 141.738281 85.4375 L 142.25 85.566406 L 142.121094 84.296875 L 142.503906 84.296875 L 142.121094 83.15625 L 141.996094 82.519531 L 142.25 82.140625 L 142.757812 82.140625 L 142.886719 81.882812 L 143.269531 82.011719 L 143.394531 81.757812 L 143.648438 81.882812 L 143.648438 81.632812 L 144.160156 81.375 L 144.414062 81.882812 L 144.285156 82.140625 L 144.921875 81.882812 L 144.796875 81.632812 L 144.160156 81.25 L 144.539062 81.125 L 144.539062 80.867188 L 145.050781 80.617188 L 145.558594 81.125 L 145.558594 81.503906 L 146.195312 81.125 L 146.449219 81.125 L 146.449219 80.867188 L 146.703125 80.867188 L 146.832031 80.234375 L 147.46875 80.488281 L 147.722656 80.742188 L 147.722656 80.109375 L 148.742188 80.109375 L 148.742188 80.488281 L 149.125 80.234375 L 149.25 79.726562 L 149.503906 79.726562 L 149.632812 79.21875 L 149.378906 79.09375 L 149.25 79.472656 L 148.742188 79.472656 L 148.867188 78.964844 L 149.25 78.835938 L 149.25 78.328125 L 149.378906 77.570312 L 149.503906 77.3125 L 149.886719 77.3125 L 149.503906 76.804688 L 149.503906 76.554688 L 149.25 76.554688 L 149.503906 75.789062 L 150.015625 75.664062 L 150.140625 75.917969 L 150.269531 75.539062 L 150.015625 75.539062 L 150.015625 75.28125 L 149.503906 75.03125 L 149.378906 74.523438 L 150.015625 74.140625 L 150.398438 74.140625 L 150.523438 73.25 L 150.90625 72.871094 L 151.035156 72.492188 L 150.777344 72.492188 L 150.652344 72.742188 L 150.652344 72.492188 L 150.140625 72.617188 L 149.632812 71.855469 L 149.378906 71.601562 L 149.25 71.21875 L 150.523438 71.347656 L 150.652344 70.332031 L 151.160156 69.445312 L 151.542969 69.445312 L 151.667969 69.824219 L 152.179688 69.824219 L 151.925781 69.316406 L 152.050781 68.808594 L 152.179688 68.429688 L 151.925781 67.664062 L 152.179688 67.664062 L 152.304688 67.03125 L 151.667969 66.90625 L 151.542969 67.15625 L 151.414062 66.269531 L 151.542969 66.015625 L 151.667969 66.398438 L 151.925781 66.398438 L 152.050781 66.140625 L 152.179688 66.398438 L 152.6875 66.269531 L 152.304688 65.632812 L 152.304688 65.382812 L 152.5625 65.382812 L 152.433594 64.617188 L 152.5625 64.109375 L 152.816406 63.601562 L 153.070312 63.859375 L 153.324219 63.601562 L 153.578125 64.238281 L 153.707031 64.109375 L 153.832031 63.601562 L 153.578125 63.601562 L 153.578125 63.351562 L 153.199219 63.222656 L 153.453125 63.09375 L 153.324219 62.714844 L 153.578125 62.714844 L 153.707031 62.207031 L 154.214844 62.207031 L 154.214844 62.96875 L 154.597656 63.09375 L 154.597656 62.460938 L 154.851562 62.078125 L 154.597656 61.953125 L 155.105469 61.699219 L 155.871094 61.445312 L 155.871094 61.0625 L 155.617188 60.8125 L 155.871094 59.921875 L 155.871094 59.667969 L 155.617188 59.539062 L 155.996094 58.90625 L 156.632812 59.03125 L 156.632812 59.667969 L 156.378906 60.046875 L 156.761719 59.921875 L 156.761719 60.304688 L 156.890625 60.046875 L 157.144531 60.046875 L 157.144531 59.289062 L 157.398438 59.03125 L 156.761719 58.652344 L 157.015625 58.015625 L 157.269531 58.015625 L 157.398438 57.257812 L 157.90625 57.507812 L 157.78125 58.144531 L 158.671875 58.398438 L 158.796875 58.144531 L 159.308594 58.015625 L 159.179688 57.765625 L 159.433594 57.765625 L 159.5625 57.507812 L 160.328125 57.507812 L 160.328125 57.257812 L 160.070312 57.257812 L 159.945312 56.875 L 160.070312 56.367188 L 160.328125 56.367188 L 160.453125 56.113281 L 160.835938 56.367188 L 160.835938 56.113281 L 161.21875 56.242188 L 161.472656 55.984375 L 161.726562 56.367188 L 162.234375 56.242188 L 162.109375 54.96875 L 162.617188 54.589844 L 162.871094 54.71875 L 162.746094 54.96875 L 163.253906 55.097656 L 163.761719 54.460938 L 164.273438 53.953125 L 164.78125 54.082031 L 164.78125 53.828125 L 165.035156 53.703125 L 165.292969 52.8125 L 165.035156 52.8125 L 165.035156 52.179688 L 165.800781 52.558594 L 165.925781 52.304688 L 166.183594 52.304688 L 166.183594 50.90625 L 167.199219 50.90625 L 167.710938 50.527344 L 167.964844 50.527344 L 168.089844 50.273438 L 168.347656 50.273438 L 168.472656 49.765625 L 169.109375 49.890625 L 169.238281 50.273438 L 169.238281 49.132812 L 169.363281 48.625 L 169.746094 48.625 L 169.875 48.367188 L 170.511719 47.734375 L 171.019531 46.972656 L 171.273438 46.71875 L 171.65625 46.71875 L 172.164062 46.464844 L 172.546875 46.59375 L 172.546875 45.957031 L 172.929688 45.449219 L 172.800781 45.070312 L 173.054688 44.433594 L 173.4375 44.179688 L 173.4375 44.5625 L 173.691406 44.5625 L 173.691406 44.8125 L 174.203125 44.6875 L 174.328125 44.304688 L 174.203125 44.179688 L 174.203125 43.925781 L 174.457031 43.925781 L 174.457031 43.546875 L 175.347656 43.039062 L 174.328125 42.78125 L 174.203125 42.273438 L 174.585938 41.894531 L 174.839844 41.894531 L 174.964844 41.257812 L 175.347656 40.75 L 175.347656 40.5 L 175.09375 40.371094 L 174.839844 40.625 L 174.585938 40.242188 L 174.585938 39.609375 L 174.457031 39.355469 L 174.457031 38.976562 L 174.585938 38.339844 L 174.964844 37.832031 L 175.601562 37.960938 L 175.476562 37.453125 L 175.476562 37.070312 L 175.601562 36.816406 L 175.347656 36.816406 L 175.601562 36.308594 L 176.113281 35.929688 L 176.113281 36.308594 L 177.128906 36.308594 L 177.128906 35.546875 L 176.367188 35.292969 L 176.367188 35.039062 L 177.640625 35.164062 L 177.765625 35.546875 L 178.019531 35.546875 L 177.765625 35.039062 L 178.402344 35.164062 L 179.039062 34.53125 L 179.550781 34.53125 Z M 179.675781 33.769531 "/>
<path style=" stroke:none;fill-rule:nonzero;fill:rgb(65.098041%,31.37255%,54.11765%);fill-opacity:1;" d="M 124.683594 0.890625 L 125.191406 1.015625 L 127.101562 2.03125 L 129.265625 3.429688 L 132.445312 5.460938 L 135.503906 7.492188 L 138.304688 9.265625 L 142.375 11.804688 L 145.941406 13.964844 L 148.105469 15.234375 L 150.652344 16.757812 L 154.34375 18.789062 L 157.269531 20.4375 L 159.5625 21.710938 L 165.417969 25.007812 L 167.582031 26.28125 L 170.765625 28.183594 L 173.566406 29.835938 L 176.113281 31.359375 L 179.421875 33.261719 L 180.695312 34.023438 L 180.441406 34.277344 L 179.804688 33.898438 L 179.675781 34.65625 L 178.914062 34.65625 L 178.402344 35.292969 L 178.019531 35.292969 L 178.019531 35.546875 L 177.765625 35.546875 L 177.640625 35.292969 L 176.367188 35.039062 L 176.621094 35.292969 L 177.257812 35.421875 L 177.128906 36.308594 L 176.492188 36.4375 L 176.113281 36.308594 L 175.984375 36.054688 L 175.347656 36.816406 L 175.601562 36.816406 L 175.476562 37.324219 L 175.730469 37.324219 L 175.730469 38.085938 L 174.964844 37.960938 L 174.585938 38.46875 L 174.457031 38.976562 L 174.710938 39.101562 L 174.710938 40.371094 L 174.839844 40.5 L 175.09375 40.242188 L 175.476562 40.5 L 175.21875 41.132812 L 174.839844 41.894531 L 174.585938 41.894531 L 174.328125 42.402344 L 174.328125 42.78125 L 175.09375 42.910156 L 175.476562 42.78125 L 175.347656 43.164062 L 175.09375 43.164062 L 174.964844 43.546875 L 174.457031 43.546875 L 174.457031 43.925781 L 174.203125 43.925781 L 174.203125 44.179688 L 174.457031 44.179688 L 174.328125 44.8125 L 173.691406 44.8125 L 173.691406 44.5625 L 173.4375 44.5625 L 173.3125 44.304688 L 173.054688 44.5625 L 172.929688 45.195312 L 173.054688 45.578125 L 172.800781 45.578125 L 172.546875 46.59375 L 171.785156 46.71875 L 171.527344 46.972656 L 171.402344 46.972656 L 170.765625 47.609375 L 170 48.496094 L 169.492188 48.875 L 169.363281 49.765625 L 169.238281 50.273438 L 168.855469 50.148438 L 169.109375 50.148438 L 168.984375 49.890625 L 168.472656 49.765625 L 168.347656 50.273438 L 168.089844 50.273438 L 167.964844 50.65625 L 167.328125 50.90625 L 166.945312 51.035156 L 166.183594 50.90625 L 166.308594 51.289062 L 166.183594 52.304688 L 165.925781 52.304688 L 165.800781 52.6875 L 165.164062 52.304688 L 165.292969 52.429688 L 165.035156 52.558594 L 165.035156 52.8125 L 165.292969 52.8125 L 165.164062 53.828125 L 164.78125 53.828125 L 164.78125 54.082031 L 164.019531 54.210938 L 163.636719 54.96875 L 163.382812 55.097656 L 163 55.097656 L 162.746094 54.96875 L 162.617188 54.84375 L 162.234375 54.96875 L 162.234375 55.859375 L 162.492188 55.984375 L 162.234375 55.984375 L 162.109375 56.492188 L 161.089844 56.242188 L 160.835938 56.113281 L 160.835938 56.367188 L 160.070312 56.367188 L 160.070312 57.257812 L 160.328125 57.257812 L 160.328125 57.507812 L 159.816406 57.636719 L 159.5625 57.507812 L 159.433594 57.890625 L 159.433594 58.144531 L 158.417969 58.398438 L 157.78125 58.144531 L 157.90625 57.507812 L 157.527344 57.507812 L 157.269531 57.636719 L 157.269531 58.015625 L 157.015625 58.015625 L 156.761719 58.652344 L 157.527344 58.90625 L 157.269531 59.289062 L 157.144531 60.046875 L 156.890625 60.046875 L 156.761719 60.429688 L 156.507812 60.304688 L 156.632812 60.046875 L 156.378906 60.046875 L 156.507812 59.03125 L 155.996094 58.90625 L 155.742188 59.539062 L 155.871094 59.921875 L 156.125 60.046875 L 155.871094 60.046875 L 155.871094 60.683594 L 155.742188 60.8125 L 156.125 61.0625 L 155.871094 61.0625 L 156.125 61.570312 L 155.488281 61.699219 L 154.980469 61.953125 L 154.726562 62.714844 L 154.597656 63.222656 L 154.089844 62.96875 L 154.214844 62.207031 L 153.707031 62.207031 L 153.453125 63.09375 L 153.324219 63.222656 L 153.578125 63.351562 L 153.578125 63.601562 L 153.832031 63.601562 L 153.832031 63.859375 L 154.089844 63.984375 L 153.832031 64.109375 L 153.578125 64.617188 L 153.324219 64.367188 L 153.324219 63.730469 L 153.070312 63.984375 L 152.816406 63.730469 L 152.5625 64.238281 L 152.6875 64.367188 L 152.5625 64.746094 L 152.6875 65 L 152.433594 65.761719 L 152.816406 66.398438 L 152.5625 66.523438 L 152.179688 66.398438 L 152.050781 66.648438 L 151.925781 66.398438 L 151.542969 66.398438 L 151.667969 66.90625 L 152.050781 66.777344 L 152.050781 67.03125 L 152.304688 67.03125 L 152.050781 67.792969 L 152.304688 68.679688 L 152.050781 69.0625 L 152.179688 69.824219 L 151.667969 69.953125 L 151.542969 69.445312 L 151.160156 69.445312 L 150.523438 71.347656 L 149.378906 71.347656 L 150.140625 72.363281 L 150.140625 72.617188 L 151.035156 72.492188 L 150.90625 73 L 150.523438 73.632812 L 150.523438 74.265625 L 149.886719 74.265625 L 149.761719 74.523438 L 149.378906 74.523438 L 149.761719 75.15625 L 150.015625 75.28125 L 150.015625 75.539062 L 150.269531 75.539062 L 150.140625 76.046875 L 149.632812 75.789062 L 149.25 76.554688 L 149.761719 76.679688 L 149.886719 77.3125 L 149.378906 77.570312 L 149.378906 78.585938 L 148.867188 79.09375 L 148.742188 79.472656 L 148.996094 79.472656 L 149.125 79.09375 L 149.25 79.34375 L 149.378906 79.09375 L 149.761719 79.21875 L 149.503906 79.34375 L 149.503906 79.726562 L 149.25 79.726562 L 149.25 80.359375 L 148.742188 80.488281 L 148.742188 80.109375 L 147.851562 80.234375 L 147.851562 81.125 L 147.46875 80.742188 L 147.46875 80.488281 L 146.960938 80.359375 L 146.703125 80.867188 L 146.449219 80.867188 L 146.449219 81.125 L 145.8125 81.503906 L 145.558594 81.503906 L 145.433594 80.867188 L 144.921875 80.742188 L 144.539062 80.867188 L 144.539062 81.125 L 144.285156 81.25 L 145.050781 81.632812 L 144.796875 82.140625 L 144.285156 82.140625 L 144.160156 81.503906 L 143.648438 81.632812 L 143.648438 81.882812 L 142.757812 82.140625 L 142.25 82.265625 L 142.121094 82.773438 L 142.503906 83.914062 L 142.503906 84.296875 L 142.121094 84.296875 L 142.375 85.3125 L 142.25 85.566406 L 141.738281 85.4375 L 141.738281 85.695312 L 141.359375 86.074219 L 141.613281 86.453125 L 140.976562 86.203125 L 138.429688 84.550781 L 135.375 82.648438 L 131.683594 80.488281 L 129.011719 78.964844 L 126.847656 77.695312 L 125.574219 76.804688 L 124.808594 76.804688 L 122.898438 77.949219 L 119.335938 79.980469 L 118.824219 80.234375 L 118.953125 79.726562 L 118.1875 79.21875 L 117.296875 78.964844 L 116.023438 78.835938 L 114.371094 78.835938 L 114.242188 78.457031 L 114.625 77.949219 L 113.988281 77.820312 L 113.734375 77.695312 L 113.734375 77.441406 L 113.480469 77.441406 L 113.480469 77.1875 L 113.222656 77.0625 L 112.84375 76.804688 L 112.714844 77.3125 L 112.078125 77.0625 L 112.078125 76.804688 L 111.695312 76.804688 L 111.316406 76.296875 L 110.679688 76.171875 L 110.550781 76.296875 L 109.53125 76.425781 L 109.789062 76.296875 L 109.53125 75.539062 L 109.277344 75.410156 L 109.277344 75.664062 L 109.023438 75.664062 L 108.894531 75.917969 L 108.261719 74.773438 L 108.261719 74.523438 L 108.515625 74.394531 L 108.386719 74.015625 L 107.625 74.394531 L 107.242188 74.140625 L 107.367188 73.507812 L 107.496094 73.25 L 106.988281 72.492188 L 106.988281 72.234375 L 106.476562 72.109375 L 106.476562 71.855469 L 105.332031 71.984375 L 105.078125 71.347656 L 104.566406 71.476562 L 104.1875 71.347656 L 104.1875 70.332031 L 103.804688 70.332031 L 103.675781 70.585938 L 103.296875 70.332031 L 102.914062 69.695312 L 102.402344 69.570312 L 102.023438 69.570312 L 102.023438 69.316406 L 101.511719 69.445312 L 101.640625 69.0625 L 101.386719 68.9375 L 101.511719 68.808594 L 101.257812 68.554688 L 101.386719 68.300781 L 101.132812 68.171875 L 101.257812 67.921875 L 100.621094 67.792969 L 100.621094 68.046875 L 100.113281 67.792969 L 99.984375 67.285156 L 99.476562 67.414062 L 99.09375 67.03125 L 98.839844 66.398438 L 98.839844 65.761719 L 99.09375 65.761719 L 98.964844 65.125 L 98.332031 65.125 L 98.074219 64.492188 L 97.820312 64.492188 L 97.820312 63.601562 L 97.058594 63.730469 L 96.929688 63.09375 L 97.3125 62.714844 L 97.3125 62.460938 L 96.800781 62.460938 L 96.546875 61.699219 L 96.292969 61.570312 L 96.167969 61.828125 L 96.039062 61.445312 L 95.53125 61.320312 L 95.402344 61.0625 L 95.53125 60.554688 L 95.148438 60.304688 L 95.019531 60.554688 L 94.511719 60.683594 L 94.382812 60.175781 L 94.128906 60.175781 L 94.003906 59.921875 L 93.492188 60.046875 L 93.492188 59.796875 L 93.238281 59.796875 L 93.109375 59.289062 L 92.855469 58.90625 L 92.730469 59.160156 L 92.21875 58.90625 L 92.347656 58.144531 L 92.347656 57.890625 L 92.09375 58.144531 L 91.835938 57.765625 L 91.582031 58.398438 L 91.074219 57.765625 L 90.820312 57.636719 L 90.820312 57 L 90.945312 56.875 L 90.691406 56.75 L 90.566406 57 L 90.4375 57.382812 L 90.183594 57.382812 L 90.183594 57.636719 L 89.929688 57.636719 L 89.800781 57.890625 L 89.039062 57.128906 L 88.910156 56.875 L 88.527344 56.875 L 88.402344 56.492188 L 88.019531 56.113281 L 88.144531 55.859375 L 87.765625 55.734375 L 87.382812 55.859375 L 86.109375 55.351562 L 85.472656 55.226562 L 85.21875 54.589844 L 84.964844 54.460938 L 84.964844 54.71875 L 84.328125 54.589844 L 83.945312 53.828125 L 83.945312 53.320312 L 83.5625 53.703125 L 83.308594 53.574219 L 82.800781 53.195312 L 82.542969 53.574219 L 82.925781 53.828125 L 82.800781 54.335938 L 82.542969 54.589844 L 82.035156 54.589844 L 81.78125 53.703125 L 81.910156 53.445312 L 81.144531 53.574219 L 81.144531 53.828125 L 80.636719 53.703125 L 80.378906 53.445312 L 79.871094 53.320312 L 79.488281 52.558594 L 78.851562 52.304688 L 78.597656 51.542969 L 78.089844 51.671875 L 77.960938 51.289062 L 78.214844 50.398438 L 78.089844 50.65625 L 77.324219 50.65625 L 76.945312 49.890625 L 76.6875 49.640625 L 76.945312 49.382812 L 76.816406 48.625 L 76.5625 48.496094 L 76.433594 47.859375 L 76.179688 47.734375 L 75.925781 48.242188 L 75.542969 48.117188 L 75.414062 47.734375 L 75.671875 47.734375 L 75.671875 47.351562 L 76.308594 47.226562 L 75.796875 46.972656 L 75.796875 46.71875 L 74.652344 46.71875 L 74.269531 46.085938 L 74.144531 45.703125 L 73.886719 45.703125 L 73.886719 45.449219 L 73.25 45.195312 L 72.996094 45.070312 L 72.871094 45.320312 L 72.359375 44.433594 L 71.980469 43.546875 L 72.617188 43.417969 L 72.742188 42.910156 L 72.996094 42.910156 L 72.996094 42.65625 L 73.507812 42.78125 L 73.507812 42.023438 L 73.25 42.023438 L 73.25 42.273438 L 72.871094 42.53125 L 71.980469 42.53125 L 72.488281 41.894531 L 72.871094 41.894531 L 72.871094 41.640625 L 73.125 41.640625 L 73.761719 40.371094 L 74.015625 40.371094 L 74.015625 39.992188 L 72.617188 40.242188 L 72.488281 39.863281 L 72.871094 39.101562 L 72.359375 39.101562 L 72.234375 38.71875 L 72.234375 38.46875 L 71.722656 38.46875 L 71.085938 38.339844 L 71.085938 38.085938 L 70.832031 37.960938 L 70.707031 36.816406 L 71.597656 36.816406 L 71.722656 36.5625 L 71.214844 36.4375 L 71.085938 36.6875 L 70.578125 36.4375 L 70.578125 34.914062 L 70.832031 34.914062 L 70.960938 34.40625 L 71.214844 34.40625 L 71.34375 34.023438 L 71.722656 33.640625 L 72.105469 33.515625 L 72.234375 32.882812 L 71.851562 33.007812 L 71.722656 32.753906 L 74.652344 31.101562 L 77.324219 29.453125 L 83.816406 25.644531 L 85.726562 24.5 L 88.910156 22.726562 L 91.835938 21.074219 L 94.636719 19.550781 L 97.820312 17.773438 L 100.496094 16.25 L 102.785156 14.851562 L 104.949219 13.585938 L 107.878906 11.804688 L 110.679688 10.03125 L 113.734375 8.125 L 119.84375 4.0625 L 122.261719 2.539062 L 123.664062 1.523438 Z M 124.683594 0.890625 "/>
<path style=" stroke:none;fill-rule:nonzero;fill:rgb(52.156866%,20%,45.882353%);fill-opacity:1;" d="M 8.457031 192.585938 L 41.933594 192.585938 L 46.136719 192.84375 L 48.171875 193.222656 L 50.210938 193.859375 L 52.757812 195 L 54.792969 196.269531 L 56.828125 197.921875 L 57.722656 198.808594 L 58.992188 200.460938 L 60.265625 202.617188 L 61.285156 205.03125 L 61.792969 206.679688 L 62.175781 209.09375 L 62.175781 213.914062 L 61.792969 216.328125 L 61.03125 218.613281 L 60.011719 220.644531 L 58.484375 222.675781 L 57.085938 224.199219 L 55.558594 225.214844 L 53.519531 226.101562 L 53.011719 226.359375 L 54.027344 227.117188 L 56.066406 228.390625 L 57.59375 229.65625 L 58.738281 231.179688 L 59.886719 233.339844 L 60.265625 234.609375 L 60.394531 235.5 L 60.523438 237.78125 L 60.523438 257.96875 L 60.011719 258.09375 L 48.429688 258.222656 L 47.15625 258.09375 L 47.027344 257.84375 L 46.898438 255.175781 L 46.773438 240.195312 L 46.519531 238.039062 L 46.136719 236.765625 L 45.371094 235.371094 L 44.226562 234.101562 L 42.953125 233.339844 L 41.300781 232.832031 L 37.863281 232.578125 L 21.820312 232.453125 L 21.820312 248.195312 L 21.695312 257.84375 L 21.058594 257.585938 L 19.785156 256.320312 L 18.640625 254.921875 L 14.4375 250.734375 L 13.675781 250.097656 L 13.039062 249.335938 L 12.019531 248.445312 L 10.875 247.179688 L 8.835938 245.148438 L 8.457031 244.511719 L 8.328125 243.875 L 8.199219 235.878906 L 8.199219 207.1875 L 8.328125 192.714844 Z M 21.820312 203.886719 L 21.820312 221.53125 L 35.441406 221.53125 L 41.171875 221.40625 L 43.082031 221.152344 L 45.246094 220.390625 L 46.773438 219.25 L 47.664062 218.359375 L 48.429688 217.089844 L 49.0625 215.058594 L 49.320312 213.664062 L 49.320312 211.632812 L 48.9375 209.726562 L 48.171875 207.695312 L 47.15625 206.296875 L 45.882812 205.15625 L 44.609375 204.523438 L 43.335938 204.140625 L 42.191406 204.015625 L 37.734375 203.886719 Z M 21.820312 203.886719 "/>
<path style=" stroke:none;fill-rule:nonzero;fill:rgb(32.549021%,17.647059%,34.901962%);fill-opacity:1;" d="M 239.761719 95.722656 L 240.144531 96.101562 L 241.800781 100.800781 L 243.199219 105.117188 L 244.472656 109.8125 L 245.746094 115.019531 L 246.890625 120.859375 L 247.65625 125.554688 L 248.417969 131.777344 L 249.054688 139.523438 L 249.4375 147.140625 L 249.4375 156.53125 L 249.054688 164.914062 L 248.292969 175.070312 L 247.78125 180.65625 L 247.65625 182.9375 L 247.402344 184.082031 L 246.890625 184.460938 L 223.085938 184.460938 L 195.207031 184.335938 L 195.460938 183.574219 L 196.226562 182.6875 L 196.480469 182.6875 L 196.734375 182.179688 L 197.878906 181.035156 L 198.390625 180.65625 L 198.644531 180.65625 L 198.644531 180.398438 L 199.152344 180.019531 L 199.40625 180.019531 L 199.40625 179.765625 L 202.207031 177.480469 L 202.84375 176.84375 L 203.734375 176.085938 L 203.992188 176.085938 L 204.246094 175.578125 L 205.265625 174.6875 L 206.15625 173.796875 L 207.171875 172.910156 L 211.375 168.71875 L 212.265625 167.703125 L 213.410156 166.5625 L 213.664062 166.179688 L 213.921875 166.179688 L 214.175781 165.671875 L 215.066406 164.785156 L 215.574219 164.023438 L 216.847656 162.625 L 217.738281 161.484375 L 218.503906 160.46875 L 218.757812 160.46875 L 219.011719 159.960938 L 220.414062 158.183594 L 222.957031 154.882812 L 224.359375 152.851562 L 225.121094 151.835938 L 226.394531 149.929688 L 227.414062 148.28125 L 228.6875 146.125 L 230.46875 143.078125 L 231.234375 141.679688 L 232.378906 139.523438 L 233.523438 136.984375 L 235.050781 133.429688 L 236.070312 130.761719 L 236.960938 128.222656 L 237.597656 126.191406 L 237.980469 124.414062 L 238.488281 122.128906 L 238.871094 120.097656 L 239.378906 116.542969 L 239.636719 114.890625 L 239.761719 112.351562 L 239.890625 111.210938 L 239.890625 110.195312 L 240.015625 108.925781 L 240.015625 104.355469 L 239.890625 101.816406 L 239.761719 100.546875 L 239.761719 97.753906 L 239.507812 96.101562 Z M 239.761719 95.722656 "/>
<path style=" stroke:none;fill-rule:nonzero;fill:rgb(32.549021%,17.647059%,34.901962%);fill-opacity:1;" d="M 7.183594 105.117188 L 7.5625 105.117188 L 7.945312 106.132812 L 8.457031 108.039062 L 8.710938 109.054688 L 8.710938 109.941406 L 8.964844 110.070312 L 9.21875 111.464844 L 9.472656 112.609375 L 9.855469 113.625 L 10.238281 115.78125 L 10.621094 116.921875 L 11.128906 119.460938 L 11.511719 120.734375 L 11.765625 122.257812 L 12.273438 123.523438 L 12.527344 124.667969 L 13.675781 128.601562 L 14.3125 130.507812 L 15.328125 133.300781 L 16.601562 136.476562 L 17.621094 138.757812 L 18.640625 140.789062 L 19.785156 142.949219 L 20.546875 144.34375 L 22.332031 147.519531 L 23.222656 149.042969 L 25.003906 151.835938 L 26.148438 153.484375 L 26.40625 154.121094 L 26.660156 154.121094 L 27.421875 155.265625 L 27.675781 155.898438 L 27.933594 155.898438 L 28.695312 157.039062 L 30.097656 158.820312 L 30.605469 159.453125 L 30.605469 159.707031 L 30.859375 159.707031 L 32.007812 161.230469 L 32.007812 161.484375 L 32.386719 161.609375 L 33.535156 163.007812 L 33.789062 163.515625 L 34.042969 163.515625 L 35.1875 164.914062 L 35.824219 165.546875 L 37.226562 167.070312 L 37.734375 167.703125 L 39.769531 169.734375 L 40.664062 170.75 L 41.679688 171.765625 L 41.679688 172.023438 L 41.933594 172.023438 L 42.316406 172.402344 L 42.316406 172.65625 L 42.570312 172.65625 L 43.464844 173.671875 L 45.117188 175.320312 L 46.644531 176.71875 L 46.898438 177.226562 L 47.410156 177.480469 L 47.792969 177.734375 L 47.792969 177.988281 L 48.300781 178.242188 L 50.335938 180.148438 L 50.71875 180.398438 L 50.71875 180.65625 L 51.230469 180.90625 L 51.863281 181.542969 L 51.863281 181.796875 L 52.375 182.050781 L 53.902344 183.445312 L 54.921875 184.335938 L 54.921875 184.460938 L 26.148438 184.589844 L 3.234375 184.589844 L 2.726562 184.335938 L 2.34375 181.414062 L 1.707031 174.179688 L 0.816406 160.34375 L 0.5625 154.5 L 0.5625 148.535156 L 0.816406 143.078125 L 1.453125 134.824219 L 1.960938 129.746094 L 2.855469 123.398438 L 3.871094 117.6875 L 4.890625 113.117188 L 6.417969 107.023438 L 6.925781 105.242188 Z M 7.183594 105.117188 "/>
<path style=" stroke:none;fill-rule:nonzero;fill:rgb(69.411767%,23.137255%,50.980395%);fill-opacity:1;" d="M 179.421875 208.078125 L 184.511719 208.078125 L 187.3125 208.328125 L 190.113281 208.835938 L 192.660156 209.601562 L 195.589844 210.996094 L 197.117188 212.140625 L 199.152344 214.171875 L 200.300781 215.945312 L 201.316406 217.976562 L 202.207031 220.898438 L 202.464844 222.039062 L 202.71875 225.34375 L 202.71875 257.585938 L 202.589844 257.714844 L 194.824219 257.84375 L 190.878906 257.84375 L 190.496094 257.335938 L 190.371094 256.828125 L 190.242188 255.046875 L 189.988281 254.160156 L 189.351562 254.289062 L 187.949219 255.175781 L 186.679688 256.191406 L 185.023438 257.207031 L 182.730469 258.09375 L 180.058594 258.730469 L 177.128906 259.109375 L 172.292969 259.109375 L 169.363281 258.730469 L 166.691406 257.96875 L 165.417969 257.460938 L 163.761719 256.445312 L 162.109375 254.921875 L 160.960938 253.652344 L 160.199219 252.382812 L 159.179688 249.96875 L 158.671875 247.429688 L 158.671875 244.132812 L 159.054688 241.59375 L 159.691406 239.179688 L 160.453125 237.402344 L 161.34375 236.007812 L 162.363281 234.734375 L 163.761719 233.46875 L 165.671875 232.324219 L 168.855469 230.800781 L 170.765625 230.292969 L 175.347656 229.40625 L 182.605469 228.261719 L 185.660156 227.5 L 187.1875 226.738281 L 188.460938 225.722656 L 189.222656 224.578125 L 189.351562 224.199219 L 189.351562 222.546875 L 188.84375 221.023438 L 188.078125 220.007812 L 186.933594 219.121094 L 185.023438 218.359375 L 183.878906 218.105469 L 182.730469 217.976562 L 179.929688 217.976562 L 177.765625 218.359375 L 176.113281 218.992188 L 175.09375 219.757812 L 174.457031 220.390625 L 173.691406 221.53125 L 172.929688 223.3125 L 172.421875 224.707031 L 172.039062 225.085938 L 161.34375 225.214844 L 160.453125 224.960938 L 160.199219 224.707031 L 160.328125 222.804688 L 160.960938 219.882812 L 161.726562 217.597656 L 162.746094 215.695312 L 164.144531 213.914062 L 165.546875 212.519531 L 167.199219 211.375 L 168.984375 210.359375 L 170.253906 209.726562 L 172.546875 208.964844 L 176.367188 208.328125 Z M 189.222656 234.734375 L 184.257812 236.257812 L 178.277344 237.65625 L 175.601562 238.546875 L 174.203125 239.304688 L 172.929688 240.449219 L 171.910156 242.351562 L 171.65625 243.117188 L 171.65625 245.527344 L 172.164062 246.921875 L 173.054688 248.445312 L 173.949219 249.210938 L 175.476562 249.84375 L 176.492188 250.097656 L 179.675781 250.097656 L 181.96875 249.460938 L 184.003906 248.445312 L 185.660156 247.304688 L 186.550781 246.542969 L 187.949219 244.765625 L 188.96875 242.988281 L 189.476562 240.957031 L 189.734375 238.039062 L 189.859375 235.371094 L 189.605469 234.734375 Z M 189.222656 234.734375 "/>
<path style=" stroke:none;fill-rule:nonzero;fill:rgb(69.411767%,23.137255%,50.980395%);fill-opacity:1;" d="M 85.980469 208.078125 L 91.074219 208.078125 L 93.238281 208.328125 L 96.292969 208.964844 L 98.585938 209.726562 L 101.003906 210.996094 L 102.660156 212.140625 L 104.1875 213.535156 L 105.078125 214.421875 L 106.730469 216.582031 L 108.003906 218.742188 L 109.40625 221.914062 L 110.296875 224.578125 L 111.058594 228.261719 L 111.441406 231.054688 L 111.695312 234.863281 L 111.695312 236.515625 L 111.570312 236.765625 L 111.058594 236.894531 L 108.003906 237.023438 L 77.835938 237.023438 L 78.089844 238.925781 L 78.597656 241.085938 L 79.363281 242.988281 L 80.636719 245.148438 L 82.035156 246.671875 L 83.816406 247.8125 L 85.21875 248.445312 L 87.253906 248.953125 L 90.308594 248.953125 L 92.472656 248.445312 L 94.003906 247.8125 L 95.402344 246.921875 L 96.546875 245.90625 L 97.058594 244.640625 L 97.4375 243.75 L 97.566406 243.625 L 110.804688 243.625 L 110.679688 244.640625 L 110.042969 246.164062 L 108.515625 249.082031 L 107.242188 250.859375 L 105.585938 252.890625 L 104.1875 254.289062 L 102.277344 255.683594 L 100.238281 256.828125 L 98.332031 257.714844 L 95.53125 258.476562 L 92.730469 258.984375 L 89.929688 259.238281 L 87.382812 259.238281 L 83.945312 258.859375 L 80.761719 258.222656 L 77.324219 257.078125 L 75.289062 256.0625 L 73.25 254.667969 L 71.722656 253.273438 L 71.085938 252.636719 L 69.816406 251.242188 L 68.542969 249.335938 L 67.140625 246.414062 L 66.121094 243.625 L 65.359375 240.320312 L 64.976562 237.273438 L 64.851562 234.992188 L 64.851562 230.800781 L 65.230469 227.246094 L 65.867188 224.328125 L 66.757812 221.660156 L 68.160156 218.742188 L 69.179688 217.089844 L 70.449219 215.4375 L 72.742188 213.15625 L 74.398438 211.882812 L 76.308594 210.742188 L 78.980469 209.472656 L 81.652344 208.710938 L 84.582031 208.203125 Z M 87.253906 218.105469 L 85.601562 218.359375 L 83.945312 218.992188 L 82.417969 220.007812 L 81.144531 221.28125 L 79.871094 223.183594 L 78.980469 224.960938 L 78.089844 227.753906 L 78.214844 228.390625 L 78.726562 228.769531 L 79.871094 228.898438 L 97.695312 228.898438 L 98.332031 228.515625 L 98.203125 227.246094 L 97.566406 224.960938 L 96.421875 222.546875 L 95.402344 221.152344 L 94.382812 220.136719 L 92.984375 219.25 L 91.457031 218.613281 L 89.929688 218.234375 L 88.65625 218.105469 Z M 87.253906 218.105469 "/>
<path style=" stroke:none;fill-rule:nonzero;fill:rgb(52.156866%,20%,45.882353%);fill-opacity:1;" d="M 126.082031 196.140625 L 128.117188 196.140625 L 128.246094 196.269531 L 128.246094 209.472656 L 137.921875 209.34375 L 154.851562 209.34375 L 155.234375 209.472656 L 155.363281 209.726562 L 155.363281 218.105469 L 155.105469 218.359375 L 128.375 218.359375 L 128.375 239.6875 L 128.628906 241.972656 L 129.136719 243.875 L 129.902344 245.273438 L 130.792969 246.414062 L 131.429688 246.921875 L 132.957031 247.558594 L 134.484375 247.9375 L 137.285156 247.9375 L 139.574219 247.179688 L 140.976562 246.164062 L 141.996094 244.765625 L 142.632812 243.367188 L 143.011719 240.828125 L 143.140625 238.925781 L 143.140625 226.101562 L 143.269531 225.976562 L 154.851562 225.851562 L 155.234375 225.976562 L 155.363281 226.230469 L 155.363281 239.941406 L 155.234375 242.734375 L 154.851562 245.398438 L 154.089844 247.6875 L 152.816406 250.351562 L 151.542969 252.128906 L 150.140625 253.78125 L 149.25 254.667969 L 147.976562 255.683594 L 145.6875 257.078125 L 143.523438 257.96875 L 141.105469 258.601562 L 137.921875 259.109375 L 136.265625 259.238281 L 134.355469 259.238281 L 131.683594 258.984375 L 128.882812 258.476562 L 125.953125 257.460938 L 123.917969 256.445312 L 122.136719 255.175781 L 120.351562 253.652344 L 119.207031 252.257812 L 117.933594 250.476562 L 116.789062 247.9375 L 116.152344 246.035156 L 115.769531 243.75 L 115.515625 240.828125 L 115.390625 235.242188 L 115.390625 211.375 L 115.515625 202.109375 L 115.644531 199.445312 L 116.152344 198.429688 L 116.789062 197.792969 L 117.679688 197.03125 L 118.445312 196.523438 L 119.972656 196.269531 Z M 126.082031 196.140625 "/>
<path style=" stroke:none;fill-rule:nonzero;fill:rgb(52.156866%,20%,45.882353%);fill-opacity:1;" d="M 215.703125 191.570312 L 220.667969 191.570312 L 220.792969 191.699219 L 220.792969 257.585938 L 220.414062 257.714844 L 213.15625 257.84375 L 208.957031 257.84375 L 208.066406 257.714844 L 207.808594 257.207031 L 207.683594 255.175781 L 207.683594 228.640625 L 207.808594 196.015625 L 208.191406 194.367188 L 209.210938 192.714844 L 210.101562 192.078125 L 211.246094 191.699219 Z M 215.703125 191.570312 "/>
<path style=" stroke:none;fill-rule:nonzero;fill:rgb(69.411767%,23.137255%,50.980395%);fill-opacity:1;" d="M 235.308594 209.34375 L 238.871094 209.34375 L 239.125 209.601562 L 239.125 257.460938 L 238.871094 257.714844 L 226.523438 257.714844 L 226.140625 257.207031 L 226.015625 256.570312 L 225.886719 242.226562 L 225.886719 214.550781 L 226.015625 209.472656 Z M 235.308594 209.34375 "/>
<path style=" stroke:none;fill-rule:nonzero;fill:rgb(52.549022%,20%,45.882353%);fill-opacity:1;" d="M 123.535156 147.265625 L 124.300781 147.390625 L 126.210938 148.535156 L 128.628906 149.804688 L 129.519531 150.566406 L 129.519531 151.453125 L 129.011719 153.867188 L 128.5 155.390625 L 128.246094 157.421875 L 128.375 159.453125 L 128.753906 162.5 L 129.136719 166.816406 L 129.519531 167.832031 L 130.28125 168.210938 L 131.683594 168.46875 L 133.976562 168.46875 L 133.976562 167.070312 L 133.464844 165.039062 L 133.464844 163.769531 L 133.59375 162.375 L 134.484375 161.359375 L 135.375 160.851562 L 136.011719 160.976562 L 136.519531 161.867188 L 137.03125 165.164062 L 137.410156 168.976562 L 137.410156 171.386719 L 136.777344 172.148438 L 132.445312 172.148438 L 129.648438 172.023438 L 127.480469 171.765625 L 125.828125 172.023438 L 124.425781 172.023438 L 122.519531 171.765625 L 121.753906 171.386719 L 120.863281 170.371094 L 120.097656 168.71875 L 119.589844 166.308594 L 119.207031 165.164062 L 118.953125 164.65625 L 118.570312 164.53125 L 117.042969 164.53125 L 115.007812 165.164062 L 113.859375 165.929688 L 113.222656 166.945312 L 113.097656 167.703125 L 116.535156 168.339844 L 117.808594 168.71875 L 118.953125 169.484375 L 119.335938 170.242188 L 119.460938 172.65625 L 119.082031 173.546875 L 118.0625 174.941406 L 116.789062 176.210938 L 115.261719 176.972656 L 112.714844 177.734375 L 109.914062 177.988281 L 106.859375 177.988281 L 105.332031 177.609375 L 104.1875 176.972656 L 103.421875 176.335938 L 102.53125 175.070312 L 101.765625 173.796875 L 101.386719 172.402344 L 101.386719 171.007812 L 102.023438 168.085938 L 102.914062 166.054688 L 103.929688 164.277344 L 104.695312 163.390625 L 105.332031 163.132812 L 105.203125 164.148438 L 104.058594 167.578125 L 103.804688 169.863281 L 104.058594 171.640625 L 104.695312 172.65625 L 105.839844 173.671875 L 107.625 174.179688 L 108.640625 174.304688 L 111.058594 174.304688 L 113.480469 173.925781 L 114.753906 173.417969 L 115.644531 172.402344 L 115.769531 172.148438 L 113.097656 172.023438 L 111.570312 171.765625 L 110.296875 171.132812 L 109.660156 169.863281 L 109.660156 168.339844 L 110.296875 166.5625 L 111.058594 165.292969 L 112.589844 163.515625 L 113.605469 162.5 L 115.261719 161.484375 L 116.789062 160.851562 L 118.445312 160.46875 L 120.097656 160.46875 L 121.117188 160.976562 L 121.753906 161.738281 L 122.007812 162.882812 L 122.136719 164.914062 L 122.644531 166.5625 L 123.152344 167.578125 L 123.917969 168.085938 L 124.425781 168.210938 L 125.699219 168.210938 L 126.210938 167.832031 L 126.082031 166.308594 L 125.316406 160.976562 L 124.683594 156.914062 L 124.425781 154.757812 L 123.664062 153.484375 L 123.027344 152.46875 L 123.027344 151.328125 L 123.152344 150.566406 L 123.28125 148.535156 Z M 123.535156 147.265625 "/>
<path style=" stroke:none;fill-rule:nonzero;fill:rgb(69.411767%,23.137255%,50.980395%);fill-opacity:1;" d="M 231.617188 191.570312 L 233.78125 191.570312 L 235.308594 191.953125 L 236.582031 192.714844 L 237.980469 193.984375 L 238.746094 195.253906 L 239.125 196.269531 L 239.125 198.679688 L 238.617188 199.953125 L 237.597656 201.21875 L 236.582031 202.234375 L 234.414062 203.378906 L 233.398438 203.632812 L 232.25 203.632812 L 230.722656 203.25 L 228.941406 202.363281 L 227.667969 201.347656 L 226.90625 200.460938 L 226.140625 198.808594 L 226.015625 198.300781 L 226.015625 196.90625 L 226.523438 195.632812 L 227.285156 194.367188 L 228.6875 192.84375 L 229.832031 192.078125 L 230.980469 191.699219 Z M 231.617188 191.570312 "/>
<path style=" stroke:none;fill-rule:nonzero;fill:rgb(52.549022%,20%,45.882353%);fill-opacity:1;" d="M 143.140625 160.976562 L 143.777344 161.101562 L 144.539062 162.753906 L 145.304688 165.292969 L 145.8125 166.6875 L 146.195312 168.339844 L 146.195312 170.625 L 145.6875 172.53125 L 144.667969 174.304688 L 143.648438 175.578125 L 142.121094 177.101562 L 140.976562 177.988281 L 139.574219 178.625 L 138.175781 179.003906 L 136.902344 178.75 L 134.992188 178.242188 L 133.59375 177.734375 L 132.574219 176.972656 L 132.703125 176.59375 L 136.648438 175.703125 L 138.304688 175.070312 L 140.339844 174.054688 L 141.738281 173.039062 L 142.503906 172.402344 L 143.269531 171.257812 L 143.394531 170.878906 L 143.394531 169.863281 L 143.011719 168.46875 L 141.867188 165.800781 L 141.613281 164.914062 L 141.738281 163.640625 L 142.375 161.992188 Z M 143.140625 160.976562 "/>
<path style=" stroke:none;fill-rule:nonzero;fill:rgb(52.941179%,20.784314%,46.27451%);fill-opacity:1;" d="M 113.605469 180.019531 L 114.496094 180.148438 L 114.753906 180.527344 L 114.753906 181.921875 L 114.496094 182.429688 L 113.859375 182.8125 L 112.84375 182.6875 L 112.207031 182.558594 L 111.058594 182.9375 L 109.660156 182.9375 L 109.023438 182.304688 L 108.769531 181.671875 L 108.894531 181.035156 L 109.53125 180.398438 L 110.167969 180.527344 L 111.316406 181.414062 L 111.824219 181.921875 L 112.078125 181.164062 L 113.097656 180.273438 Z M 113.605469 180.019531 "/>
<path style=" stroke:none;fill-rule:nonzero;fill:rgb(53.333336%,20.784314%,46.666667%);fill-opacity:1;" d="M 130.664062 156.660156 L 131.9375 156.660156 L 132.574219 157.039062 L 132.828125 157.804688 L 132.320312 158.4375 L 131.683594 158.820312 L 130.28125 158.945312 L 130.027344 158.5625 L 130.027344 157.546875 L 130.410156 156.789062 Z M 130.664062 156.660156 "/>
<path style=" stroke:none;fill-rule:nonzero;fill:rgb(52.941179%,20.784314%,46.27451%);fill-opacity:1;" d="M 134.609375 156.28125 L 135.503906 156.53125 L 136.011719 157.167969 L 136.011719 157.929688 L 135.503906 158.5625 L 134.230469 158.4375 L 133.464844 157.929688 L 133.339844 157.546875 L 133.339844 156.660156 Z M 134.609375 156.28125 "/>
<path style=" stroke:none;fill-rule:nonzero;fill:rgb(70.19608%,26.666668%,52.941179%);fill-opacity:1;" d="M 82.035156 26.660156 L 82.417969 26.660156 L 82.164062 27.167969 L 81.652344 27.675781 L 81.527344 27.675781 L 81.527344 27.929688 L 81.144531 28.054688 L 80.761719 27.675781 L 80.761719 27.421875 Z M 82.035156 26.660156 "/>
<path style=" stroke:none;fill-rule:nonzero;fill:rgb(52.156866%,20%,45.882353%);fill-opacity:1;" d="M 150.777344 67.921875 L 151.414062 67.921875 L 151.542969 69.0625 L 151.160156 69.0625 L 150.90625 68.9375 L 150.90625 68.679688 L 150.523438 68.679688 L 150.398438 68.300781 L 150.652344 68.300781 Z M 150.777344 67.921875 "/>
<path style=" stroke:none;fill-rule:nonzero;fill:rgb(60.392159%,27.058825%,50.980395%);fill-opacity:1;" d="M 89.671875 56.621094 L 90.054688 56.75 L 90.054688 57.128906 L 90.4375 57 L 90.4375 57.382812 L 90.183594 57.382812 L 90.183594 57.636719 L 89.929688 57.636719 L 89.800781 57.890625 L 89.292969 57.382812 L 89.417969 56.75 Z M 89.671875 56.621094 "/>
<path style=" stroke:none;fill-rule:nonzero;fill:rgb(69.411767%,23.529412%,50.980395%);fill-opacity:1;" d="M 84.199219 25.390625 L 85.21875 25.390625 L 84.835938 26.023438 L 84.582031 26.023438 L 84.453125 26.40625 L 84.074219 26.53125 L 84.074219 26.152344 Z M 84.199219 25.390625 "/>
<path style=" stroke:none;fill-rule:nonzero;fill:rgb(68.235296%,25.490198%,51.764709%);fill-opacity:1;" d="M 81.398438 27.039062 L 81.652344 27.167969 L 81.527344 27.675781 L 81.527344 27.929688 L 81.144531 28.054688 L 80.761719 27.675781 L 80.761719 27.421875 Z M 81.398438 27.039062 "/>
<path style=" stroke:none;fill-rule:nonzero;fill:rgb(69.411767%,23.529412%,50.980395%);fill-opacity:1;" d="M 85.855469 24.628906 L 86.109375 24.882812 L 85.855469 25.515625 L 85.21875 25.390625 L 85.34375 25.007812 L 85.601562 25.007812 L 85.601562 24.757812 Z M 85.855469 24.628906 "/>
<path style=" stroke:none;fill-rule:nonzero;fill:rgb(64.313728%,30.19608%,53.333336%);fill-opacity:1;" d="M 152.6875 67.921875 L 153.324219 68.300781 L 152.941406 68.808594 L 152.5625 68.808594 L 152.433594 68.300781 L 152.6875 68.300781 Z M 152.6875 67.921875 "/>
<path style=" stroke:none;fill-rule:nonzero;fill:rgb(65.490198%,31.37255%,54.11765%);fill-opacity:1;" d="M 155.617188 62.078125 L 156.125 62.335938 L 155.871094 62.84375 L 155.617188 62.84375 L 155.488281 63.09375 L 155.363281 62.460938 Z M 155.617188 62.078125 "/>
<path style=" stroke:none;fill-rule:nonzero;fill:rgb(52.156866%,20%,45.882353%);fill-opacity:1;" d="M 158.289062 56.875 L 158.796875 57.128906 L 159.054688 57.636719 L 158.671875 57.507812 L 158.671875 57.765625 L 158.417969 57.765625 L 158.164062 57.507812 Z M 158.289062 56.875 "/>
</g>
</svg>
