<?xml version="1.0" encoding="UTF-8"?>
<svg version="1.1" viewBox="0 0 1963 2048" width="140" height="146" xmlns="http://www.w3.org/2000/svg">
<path transform="translate(979,7)" d="m0 0 4 1 15 8 17 11 25 16 24 16 22 14 32 20 28 17 17 10 20 12 29 16 23 13 18 10 46 26 17 10 25 15 22 13 20 12 26 15 77 45 23 14 21 13 19 12 21 14 18 13 19 14 13 10 16 13 14 12 11 9 30 28 21 21 7 8 8 8 7 8 11 13 11 14 12 15 12 16 11 15 21 32 12 20 12 21 11 20 11 23 10 21 13 31 10 26 16 47 10 35 13 53 9 46 6 37 6 49 5 61 3 60v74l-3 66-6 80-4 44-1 18-2 9-4 3h-667l-43-1-4-4-5-15-10-37-10-35-15-60-10-37-11-39-18-69-2-6 1-5 25-6 33-10 20-8 26-13 22-13 19-12 32-21 30-20 1-5-5-25-9-42-9-34-12-36-11-25-12-23-14-23-10-14-11-13-7-8-11-12-8-8-11-9-11-10-14-11-13-10-18-14-23-16-16-11-15-10-26-17-24-15-29-17-21-12-17-10-10-7h-6l-15 9-28 16-13 8-18 11-19 12-24 15-24 16-10 7-16 11-14 10-16 12-18 14-13 11-11 9-16 15-8 7-9 11-7 7-11 14-14 22-12 21-8 15-11 25-10 30-7 26-14 62-2 12v10l5 4 11 7 26 17 14 9 24 15 19 11 16 9 21 10 30 10 20 6 19 5 2 1v7l-7 25-12 48-17 62-11 42-13 49-8 29-8 25-3 12-3 5-2 1-59 2h-651l-4-2-3-23-5-57-7-109-2-46v-47l2-43 5-65 4-40 7-50 8-45 8-36 12-48 12-39 8-23 11-29 14-34 14-30 12-24 26-46 9-14 21-31 10-14 12-16 13-16 9-11 12-14 8-8 7-8 16-17 15-15 8-7 9-9 8-7 11-10 10-8 13-11 9-7 12-9 36-26 17-11 14-9 22-14 20-12 44-26 24-14 43-25 28-17 51-30 15-9 25-14 23-13 22-12 25-14 21-12 18-11 17-10 23-14 22-14 24-15 48-32 19-12 11-8z" fill="#853375"/>
<path transform="translate(1411,266)" d="m0 0 7 3 4 1 16 9 48 28 23 14 21 13 19 12 21 14 18 13 19 14 13 10 16 13 14 12 11 9 30 28 21 21 7 8 8 8 7 8 11 13 11 14 12 15 12 16 11 15 21 32 12 20 12 21 11 20 11 23 10 21 13 31 10 26 16 47 10 35 13 53 9 46 6 37 6 49 5 61 3 60v74l-3 66-6 80-4 44-1 18-2 9-4 3h-667l-43-1-4-4-5-15-10-37-10-35-15-60-10-37-11-39-18-69-2-6 1-5 25-6 33-10 20-8 26-13 22-13 19-12 32-21 30-20 1-5-5-25-9-42-9-34-12-36-11-25-12-23-14-23-10-14-11-13-7-8-11-12-8-8-11-9-11-10-14-11-13-10-18-14-23-16-16-11-15-10-4-6 4-2v-2l4 1-1-10h3l-3-9-1-5 2-3h4l1-2 3 1 1-2 2 1v-2l4-2 2 4-1 2 5-2-1-2-5-3 3-1v-2l4-2 4 4v3l5-3h2v-2h2l1-5 5 2 2 2v-5h8v3l3-2 1-4h2l1-4-2-1-1 3h-4l1-4 3-1v-4l1-6 1-2h3l-3-4v-2h-2l2-6 4-1 1 2 1-3h-2v-2l-4-2-1-4 5-3h3l1-7 3-3 1-3h-2l-1 2v-2l-4 1-4-6-2-2-1-3 10 1 1-8 4-7h3l1 3h4l-2-4 1-4 1-3-2-6h2l1-5-5-1-1 2-1-7 1-2 1 3h2l1-2 1 2 4-1-3-5v-2h2l-1-6 1-4 2-4 2 2 2-2 2 5 1-1 1-4h-2v-2l-3-1 2-1-1-3h2l1-4h4v6l3 1v-5l2-3-2-1 4-2 6-2v-3l-2-2 2-7v-2l-2-1 3-5 5 1v5l-2 3 3-1v3l1-2h2v-6l2-2-5-3 2-5h2l1-6 4 2-1 5 7 2 1-2 4-1-1-2h2l1-2h6v-2h-2l-1-3 1-4h2l1-2 3 2v-2l3 1 2-2 2 3 4-1-1-10 4-3 2 1-1 2 4 1 4-5 4-4 4 1v-2l2-1 2-7h-2v-5l6 3 1-2h2v-11h8l4-3h2l1-2h2l1-4 5 1 1 3v-9l1-4h3l1-2 5-5 4-6 2-2h3l4-2 3 1v-5l3-4-1-3 2-5 3-2v3h2v2l4-1 1-3-1-1v-2h2v-3l7-4-8-2-1-4 3-3h2l1-5 3-4v-2l-2-1-2 2-2-3v-5l-1-2v-3l1-5 3-4 5 1-1-4v-3l1-2h-2l2-4 4-3v3h8v-6l-6-2v-2l10 1 1 3h2l-2-4 5 1 5-5h4z" fill="#853375"/>
<path transform="translate(979,7)" d="m0 0 4 1 15 8 17 11 25 16 24 16 22 14 32 20 28 17 17 10 20 12 29 16 23 13 18 10 46 26 17 10 25 15 22 13 20 12 26 15 10 6-2 2-5-3-1 6h-6l-4 5h-3v2h-2l-1-2-10-2 2 2 5 1-1 7-5 1-3-1-1-2-5 6h2l-1 4h2v6l-6-1-3 4-1 4 2 1v3 7l1 1 2-2 3 2-2 5-3 6h-2l-2 4v3l6 1 3-1-1 3h-2l-1 3h-4v3h-2v2h2l-1 5h-5v-2h-2l-1-2-2 2-1 5 1 3h-2l-2 8-6 1-2 2h-1l-5 5-6 7-4 3-1 7-1 4-3-1h2l-1-2-4-1-1 4h-2l-1 3-5 2-3 1-6-1 1 3-1 8h-2l-1 3-5-3 1 1-2 1v2h2l-1 8h-3v2l-6 1-3 6-2 1h-3l-2-1-1-1-3 1v7l2 1h-2l-1 4-8-2-2-1v2h-4-2v7h2v2l-4 1-2-1-1 3v2l-8 2-5-2 1-5h-3l-2 1v3h-2l-2 5 6 2-2 3-1 6h-2l-1 3-2-1 1-2h-2l1-8-4-1-2 5 1 3 2 1h-2v5l-1 1 3 2h-2l2 4-5 1-4 2-2 6-1 4-4-2 1-6h-4l-2 7-1 1 2 1v2h2v2l2 1-2 1-2 4-2-2v-3-2l-2 2-2-2-2 4 1 1-1 3 1 2-2 6 3 5-2 1-3-1-1 2-1-2h-2-1l1 4 3-1v2h2l-2 6 2 7-2 3 1 6-4 1-1-4h-3l-5 15h-9l6 8v2l7-1-1 4-3 5v5h-5l-1 2h-3l3 5 2 1v2h2l-1 4-4-2-3 6 4 1 1 5-4 2v5 3l-4 4-1 3h2l1-3 1 2 1-2 3 1-2 1v3h-2v5l-4 1v-3l-7 1v7l-3-3v-2l-4-1-2 4h-2v2l-5 3h-2l-1-5-4-1-3 1v2l-2 1 6 3-2 4h-4l-1-5-4 1v2l-7 2-4 1-1 4 3 9v3h-3l2 8-1 2-4-1v2l-3 3 2 3-5-2-20-13-24-15-29-17-21-12-17-10-10-7h-6l-15 9-28 16-4 2 1-4-6-4-7-2-10-1h-3-10l-1-3 3-4-5-1-2-1v-2h-2v-2l-2-1-3-2-1 4-5-2v-2h-3l-3-4-5-1-1 1-8 1 2-1-2-6-2-1v2h-2l-1 2-5-9v-2l2-1-1-3-6 3-3-2 1-5 1-2-4-6v-2l-4-1v-2l-9 1-2-5-4 1-3-1v-8h-3l-1 2-3-2-3-5-4-1h-3v-2l-4 1 1-3-2-1 1-1-2-2 1-2-2-1 1-2-5-1v2l-4-2-1-4-4 1-3-3-2-5v-3-2h2l-1-5h-5l-2-5h-2v-7l-6 1-1-5 3-3v-2h-4l-2-6-2-1-1 2-1-3-4-1-1-2 1-4-3-2-1 2-4 1-1-4h-2l-1-2-4 1v-2h-2l-1-4-2-3-1 2-4-2 1-6v-2l-2 2-2-3-2 5-4-5-2-1v-5l1-1-2-1-1 2-1 3h-2v2h-2l-1 2-6-6-1-2h-3l-1-3-3-3 1-2-3-1-3 1-10-4-5-1-2-5-2-1v2l-5-1-3-6v-4l-3 3-2-1-4-3-2 3 3 2-1 4-2 2h-4l-2-7 1-2-6 1v2l-4-1-2-2-4-1-3-6-5-2-2-6-4 1-1-3 2-7-1 2h-6l-3-6-2-2 2-2-1-6-2-1-1-5-2-1-2 4-3-1-1-3h2v-3l5-1-4-2v-2h-9l-3-5-1-3h-2v-2l-5-2-2-1-1 2-4-7-3-7 5-1 1-4h2v-2l4 1v-6h-2v2l-3 2h-7l4-5h3v-2h2l5-10h2v-3l-11 2-1-3 3-6h-4l-1-3v-2h-4l-5-1v-2l-2-1-1-9h7l1-2-4-1-1 2-4-2v-8-4h2l1-4h2l1-3 3-3 3-1 1-5-3 1-1-2 23-13 21-13 51-30 15-9 25-14 23-13 22-12 25-14 21-12 18-11 17-10 23-14 22-14 24-15 48-32 19-12 11-8z" fill="#A6508A"/>
<path transform="translate(66,1517)" d="m0 0h263l33 2 16 3 16 5 20 9 16 10 16 13 7 7 10 13 10 17 8 19 4 13 3 19v38l-3 19-6 18-8 16-12 16-11 12-12 8-16 7-4 2 8 6 16 10 12 10 9 12 9 17 3 10 1 7 1 18v159l-4 1-91 1-10-1-1-2-1-21-1-118-2-17-3-10-6-11-9-10-10-6-13-4-27-2-126-1v124l-1 76-5-2-10-10-9-11-33-33-6-5-5-6-8-7-9-10-16-16-3-5-1-5-1-63v-226l1-114zm105 89v139h107l45-1 15-2 17-6 12-9 7-7 6-10 5-16 2-11v-16l-3-15-6-16-8-11-10-9-10-5-10-3-9-1-35-1z" fill="#853375"/>
<path transform="translate(1883,754)" d="m0 0 3 3 13 37 11 34 10 37 10 41 9 46 6 37 6 49 5 61 3 60v74l-3 66-6 80-4 44-1 18-2 9-4 3h-187l-219-1 2-6 6-7h2l2-4 9-9 4-3h2v-2l4-3h2v-2l22-18 5-5 7-6h2l2-4 8-7 7-7 8-7 33-33 7-8 9-9 2-3h2l2-4 7-7 4-6 10-11 7-9 6-8h2l2-4 11-14 20-26 11-16 6-8 10-15 8-13 10-17 14-24 6-11 9-17 9-20 12-28 8-21 7-20 5-16 3-14 4-18 3-16 4-28 2-13 1-20 1-9v-8l1-10v-36l-1-20-1-10v-22l-2-13z" fill="#532D59"/>
<path transform="translate(56,828)" d="m0 0h3l3 8 4 15 2 8v7l2 1 2 11 2 9 3 8 3 17 3 9 4 20 3 10 2 12 4 10 2 9 9 31 5 15 8 22 10 25 8 18 8 16 9 17 6 11 14 25 7 12 14 22 9 13 2 5h2l6 9 2 5h2l6 9 11 14 4 5v2h2l9 12v2l3 1 9 11 2 4h2l9 11 5 5 11 12 4 5 16 16 7 8 8 8v2h2l3 3v2h2l7 8 13 13 12 11 2 4 4 2 3 2v2l4 2 16 15 3 2v2l4 2 5 5v2l4 2 12 11 8 7v1l-226 1h-180l-4-2-3-23-5-57-7-109-2-46v-47l2-43 5-65 4-40 7-50 8-45 8-36 12-48 4-14z" fill="#532D59"/>
<path transform="translate(1409,1639)" d="m0 0h40l22 2 22 4 20 6 23 11 12 9 16 16 9 14 8 16 7 23 2 9 2 26v254l-1 1-61 1h-31l-3-4-1-4-1-14-2-7-5 1-11 7-10 8-13 8-18 7-21 5-23 3h-38l-23-3-21-6-10-4-13-8-13-12-9-10-6-10-8-19-4-20v-26l3-20 5-19 6-14 7-11 8-10 11-10 15-9 25-12 15-4 36-7 57-9 24-6 12-6 10-8 6-9 1-3v-13l-4-12-6-8-9-7-15-6-9-2-9-1h-22l-17 3-13 5-8 6-5 5-6 9-6 14-4 11-3 3-84 1-7-2-2-2 1-15 5-23 6-18 8-15 11-14 11-11 13-9 14-8 10-5 18-6 30-5zm77 210-39 12-47 11-21 7-11 6-10 9-8 15-2 6v19l4 11 7 12 7 6 12 5 8 2h25l18-5 16-8 13-9 7-6 11-14 8-14 4-16 2-23 1-21-2-5z" fill="#B13B82"/>
<path transform="translate(675,1639)" d="m0 0h40l17 2 24 5 18 6 19 10 13 9 12 11 7 7 13 17 10 17 11 25 7 21 6 29 3 22 2 30v13l-1 2-4 1-24 1h-237l2 15 4 17 6 15 10 17 11 12 14 9 11 5 16 4h24l17-4 12-5 11-7 9-8 4-10 3-7 1-1h104l-1 8-5 12-12 23-10 14-13 16-11 11-15 11-16 9-15 7-22 6-22 4-22 2h-20l-27-3-25-5-27-9-16-8-16-11-12-11-5-5-10-11-10-15-11-23-8-22-6-26-3-24-1-18v-33l3-28 5-23 7-21 11-23 8-13 10-13 18-18 13-10 15-9 21-10 21-6 23-4zm10 79-13 2-13 5-12 8-10 10-10 15-7 14-7 22 1 5 4 3 9 1h140l5-3-1-10-5-18-9-19-8-11-8-8-11-7-12-5-12-3-10-1z" fill="#B13B82"/>
<path transform="translate(990,1545)" d="m0 0h16l1 1v104l76-1h133l3 1 1 2v66l-2 2h-210v168l2 18 4 15 6 11 7 9 5 4 12 5 12 3h22l18-6 11-8 8-11 5-11 3-20 1-15v-101l1-1 91-1 3 1 1 2v108l-1 22-3 21-6 18-10 21-10 14-11 13-7 7-10 8-18 11-17 7-19 5-25 4-13 1h-15l-21-2-22-4-23-8-16-8-14-10-14-12-9-11-10-14-9-20-5-15-3-18-2-23-1-44v-188l1-73 1-21 4-8 5-5 7-6 6-4 12-2z" fill="#853375"/>
<path transform="translate(1694,1509)" d="m0 0h39l1 1v519l-3 1-57 1h-33l-7-1-2-4-1-16v-209l1-257 3-13 8-13 7-5 9-3z" fill="#853375"/>
<path transform="translate(1848,1649)" d="m0 0h28l2 2v377l-2 2h-97l-3-4-1-5-1-113v-218l1-40z" fill="#B13B82"/>
<path transform="translate(970,1160)" d="m0 0 6 1 15 9 19 10 7 6v7l-4 19-4 12-2 16 1 16 3 24 3 34 3 8 6 3 11 2h18v-11l-4-16v-10l1-11 7-8 7-4 5 1 4 7 4 26 3 30v19l-5 6h-34l-22-1-17-2-13 2h-11l-15-2-6-3-7-8-6-13-4-19-3-9-2-4-3-1h-12l-16 5-9 6-5 8-1 6 27 5 10 3 9 6 3 6 1 19-3 7-8 11-10 10-12 6-20 6-22 2h-24l-12-3-9-5-6-5-7-10-6-10-3-11v-11l5-23 7-16 8-14 6-7 5-2-1 8-9 27-2 18 2 14 5 8 9 8 14 4 8 1h19l19-3 10-4 7-8 1-2-21-1-12-2-10-5-5-10v-12l5-14 6-10 12-14 8-8 13-8 12-5 13-3h13l8 4 5 6 2 9 1 16 4 13 4 8 6 4 4 1h10l4-3-1-12-6-42-5-32-2-17-6-10-5-8v-9l1-6 1-16z" fill="#863375"/>
<path transform="translate(1819,1509)" d="m0 0h17l12 3 10 6 11 10 6 10 3 8v19l-4 10-8 10-8 8-17 9-8 2h-9l-12-3-14-7-10-8-6-7-6-13-1-4v-11l4-10 6-10 11-12 9-6 9-3z" fill="#B13B82"/>
<path transform="translate(1124,1268)" d="m0 0 5 1 6 13 6 20 4 11 3 13v18l-4 15-8 14-8 10-12 12-9 7-11 5-11 3-10-2-15-4-11-4-8-6 1-3 31-7 13-5 16-8 11-8 6-5 6-9 1-3v-8l-3-11-9-21-2-7 1-10 5-13z" fill="#863375"/>
<path transform="translate(892,1418)" d="m0 0 7 1 2 3v11l-2 4-5 3-8-1-5-1-9 3h-11l-5-5-2-5 1-5 5-5 5 1 9 7 4 4 2-6 8-7z" fill="#873576"/>
<path transform="translate(1026,1234)" d="m0 0h10l5 3 2 6-4 5-5 3-11 1-2-3v-8l3-6z" fill="#883577"/>
<path transform="translate(1057,1231)" d="m0 0 7 2 4 5v6l-4 5-10-1-6-4-1-3v-7z" fill="#873576"/>
<path transform="translate(644,210)" d="m0 0h3l-2 4-4 4h-1v2l-3 1-3-3v-2z" fill="#B34487"/>
<path transform="translate(1184,535)" d="m0 0h5l1 9h-3l-2-1v-2h-3l-1-3h2z" fill="#853375"/>
<path transform="translate(704,446)" d="m0 0 3 1v3l3-1v3h-2v2h-2l-1 2-4-4 1-5z" fill="#9A4582"/>
<path transform="translate(661,200)" d="m0 0h8l-3 5h-2l-1 3-3 1v-3z" fill="#B13C82"/>
<path transform="translate(639,213)" d="m0 0 2 1-1 4v2l-3 1-3-3v-2z" fill="#AE4184"/>
<path transform="translate(674,194)" d="m0 0 2 2-2 5-5-1 1-3h2v-2z" fill="#B13C82"/>
<path transform="translate(1199,535)" d="m0 0 5 3-3 4h-3l-1-4h2z" fill="#A44D88"/>
<path transform="translate(1222,489)" d="m0 0 4 2-2 4h-2l-1 2-1-5z" fill="#A7508A"/>
<path transform="translate(1243,448)" d="m0 0 4 2 2 4-3-1v2h-2l-2-2z" fill="#853375"/>
</svg>
